<?xml version="1.0" encoding="UTF-8"?>
<svg id="Layer_1" data-name="Layer 1" xmlns="http://www.w3.org/2000/svg" viewBox="0 0 3272.13 3096.39">
  <path d="M1989.78,125.63c-82.16-93.6-279.76-136.76-452.93-45.94-196.41,102.35-343.47,316.03-375.37,551.63-8.48-6.29-17.13-12.3-25.98-18.05-49.99-32.58-105.36-56.6-164.78-70.13-308.2-70.13-646.79,168.38-733.37,532.59-44.02,185.43-14.31,367.66,66.12,511.17,4.24,8.98,8.75,17.91,13.44,26.84-20.14,22.1-278.62,300.86-293.48,479.5-5.1,61.66-.32,192.95,231,199.78,83.85,2.51,167.7-8.75,251-18.32,143.32-16.5,286-38.64,429.32-55.14,387.31-49.9,433.38,79.66,444.27,149.34,17.09,158.63-106.54,253.56-166.38,300.45-131.38,102.99-440.53,269.1-701.11,210.54-272.79-61.29-268.14-315.94-182.87-422.44,67.54-83.8,183.38-110.92,205.71-121.4l-2.1-19.32c-25.56,4.56-51.68,12.94-76.33,22.38-41.01,15.63-80.02,36.14-115.52,61.93-126.5,91.78-243.49,232.5-195.73,409.41,39.87,134.02,138.17,203.43,223.8,229.81,143.14,44.07,286.18,27.25,427.59-6.88,112.42-27.16,219.47-70,322.09-124.59,137.53-73.14,261.03-163.64,358.37-285.91,75.88-95.29,126.55-201.29,117.25-328.2-4.65-63.12-32.54-111.69-85.86-145.37-56.64-35.77-119.49-50.67-185.75-54.96-216.05-13.9-381.15,12.62-641.77,48.26-93.28,11.8-186.25,23.1-280.85,14.35-101.44-9.43-186.98-53.91-193.22-179.55-2.96-116.11,122.72-326.15,131.52-330.62,1.87,2.28,9.71,13.4,23.79,29.12-.14-1.05-.23-2.14-.36-3.19,75.92,94.47,177.86,162.73,295.89,189.57,308.2,70.13,646.83-168.34,733.37-532.63,58.1-244.3-11.99-483.14-157.36-635.12-.55-.55-35.27-35.45-36.5-36.46,10.66-86.63,11.05-163.14,138.67-342.08,109.23-153.16,262.9-230.06,387.49-209.05,163.92,27.66,202.13,130.52,173.58,219.24-32.08,99.68-95.48,148.52-193.86,230.95l5.47,17.45c57.47-29.21,198.6-119.62,248.5-161.14,84.58-70.27,141.13-164.87,33.22-287.82ZM1212.48,1284.27c-72.14,303.68-303.23,504.88-527.3,453.88-224.07-50.99-338.09-334.85-265.91-638.49,72.14-303.68,303.23-504.92,527.3-453.93,224.07,50.99,338.09,334.9,265.91,638.54Z"/>
  <path d="M2779.84,1653.26c-22.15,39.73-32.37,80.04-55.68,119.07-34.2,57.28-67.26,108.43-109.89,153.45-98.15,103.65-236.97,165.14-377.92,142.57-234.75-37.59-298.72-243.86-270.95-390.39,31.09-164.04,123.2-230.61,229.61-294.99,134.67-81.7,299.76-124.59,507.74-221.45,132.98-73.95,174.54-103.72,143.84-265.58-25.45-134.15-130.71-240.51-359.94-228.51-126.95,6.64-390.64,55.86-366.4,346.96l-23.64,5.45c-34.72-108.81-.97-241.3,63.18-313.75,283.58-320.28,846.78-161.38,839.02,273.43-2.4,134.43-57.06,435.86-69.89,529.91-13.49,98.89-99.38,505.66,225.1,465.47,40.62-5.03,70.15-27.81,82.26-37.39l13.43,19.07c-33.44,34.04-77.27,64.25-127.42,86.99-59.35,21.29-192.29,71.02-289.61-83.86-70.95-112.92-42.15-258.23-43.98-304.77-2.94-.55-5.94-1.1-8.88-1.65ZM2836.35,1187.43c-3.72-2.09-5.56-4.18-9.27-6.27-143.33,97.6-281.06,149.86-380.25,200.89-93.3,48-420.08,191.77-296.74,428.61,47.63,91.45,138.96,109.25,245.94,88.12,312.23-61.67,440.31-643.78,440.31-711.36Z"/>
  <path d="M1708.03,644c30.48-18.38,171.96-112.92,244.5-126.23,45.51-8.35,76.56,12.5,76.56,40.36,0,47.3-73.74,152.83-126.1,283.77-103.71,259.39-205.36,589.15-221.29,806.16-8.55,116.37-4.35,202.74,49.28,282.61,35.14,52.33,86.36,112.92,180.41,138.39l.3,24.31c-84.03,2.59-212.29-1.11-286.57-66.6-290.84-256.46,129.1-1193.19,160.28-1291.84,26.35-68.65,35.25-110.86-73.51-73.68l-3.88-17.25Z"/>
</svg>