<?xml version="1.0" encoding="UTF-8"?>
<svg id="Layer_1" data-name="Layer 1" xmlns="http://www.w3.org/2000/svg" viewBox="0 0 2530.37 3113.91">
  <path d="M1407.58,437.59c158.74-82.24,290-145.63,435.33-134.93,229.43,14.54,505.52,158.86,241.7,1204.39,229.8,12.1,312.31,153.35,338.86,203.79,32.18,61.13,47.66,127.34,52.75,195.75,3.09,41.49,5.31,83.38,3.2,124.85-4.81,94.46-26.44,185.42-70.45,269.61-29.3,56.04-132.49,153.49-232.95,94.46-23.36-13.73-45.33-32.94-53.25-58.86-22.27-72.83,21.75-169.13,45.85-211.19,60.12-97.51,150.76-207.91,170.61-235.9,22.79-32.13,58.29-76.73,50.63-116.15-18.48-91.77-144.46-230.47-318.91-214.42-10.17,28.19-117.86,453.89-328.7,804.83-58.43,97.25-225.24,364.32-380.16,508.74-73.19,74.89-210.14,199.35-423.49,206.37-64.86,3.43-140.05-21.26-194.18-107.69-50.72-79.26-60.52-195.27-54.28-272.46,8.33-103.11,44.76-196.03,93.01-285.58,170.74-313.46,540.76-595.23,613.8-645.21,371.58-254.27,637.41-263.18,637.41-263.18,123.42-621.93,39.69-831.37,19.54-876.93-83.22-191.45-278.57-208.22-362.72-200.04-197.47,27.23-306.84,131.13-306.84,131.13-60.54,158.24-258.27,490.27-260.27,495.69-4.86,13.15-3.75,28.2,15.66,34.02,49.84,11.33,136.37-2.41,174.1-13.03,179.91-55.54,328.5-214.05,383.5-305.16,27.58-45.69,53.9-92.15,81.34-137.93,13.31-22.21,30.21-41.01,53.75-53.54,53.83-28.67,111.27,2.94,132.89,41.12,25.76,45.48,28.84,92.58,15.07,142.14-13.59,48.92-32.82,95.45-56.88,140.04-68.16,126.33-139.58,250.63-223.4,367.5-152,211.93-331.69,395.73-547.93,542.74-36.27,24.66-229.35,181.03-491.26,200.49-101.72,11.49-394.4,3.19-443.22-287.85-8.73-83.94-28.85-270.12,224.95-584.33,271.07-265.7,829.98-631.54,915.14-686.77,0,0,20.2-53.05,25.47-108.22,16.36-98.3-35.81-165.92-134.96-180.65-70.51-10.48-145.85,11.17-206.33,46.38-106.25,61.85-507.43,334.4-556.31,363.73-55.48,33.29-115.22,57.83-179.55,67.45-173.74,25.98-292.26-84.02-245.86-214.91,12.75-35.96,31.98-69.23,60.59-94.47,51.92-45.81,122.45-85.56,168.14-112.41C733.38-40.19,1177.19,24.97,1317.04,107.34c117.11,66.17,137.14,200.8,90.54,330.25ZM2021.24,1561.54s-347.5,24.52-707.75,347.84c-43.79,37.58-378.04,352.49-340.72,633.31,6.69,41.18,18.38,80.48,42.58,115.05,27.6,39.42,89.75,70.26,137.87,70.39,55.15.16,105.47-19.24,153.28-46.76,88.84-51.13,207.94-174.86,267.86-255.56,246.64-305.85,369.28-635.33,446.88-864.26ZM1323.85,590.5c-46.92,31.09-167,120.13-212.72,152.9-55.88,40.06-110.13,82.4-164.72,124.24-41.23,31.59-82.78,62.86-122.58,96.2-56.09,46.99-110,96.51-159.97,150.09-73.69,79.04-130.55,167.12-145.24,277.02-5.55,41.55-5.98,83.26,4.05,124.34,21.91,89.75,90.2,148.51,186.15,162.27,55.9,8.02,110.85,3.56,165.61-8.33,200.81-27.77,622.52-403.84,773.42-569.71,38.44-42.25,74.35-86.59,105.01-134.99,41.31-75.99-9.02-84.89-37.77-68.27-37.59,23.19-500.05,442.92-639.46,540.15-81.08,58.07-186.7,132.57-317.81,127.79-25.05-.91-83.56-21.77-112.65-64.96-24.84-36.88-29.72-84.12-22.73-128.03,31.29-196.58,314.83-381.56,411.01-463.91,130.56-111.79,291.34-316.07,290.4-316.82Z"/>
</svg>